<svg xmlns="http://www.w3.org/2000/svg" width="34" height="34" viewBox="0 0 34 34">
  <!-- O slot VAZIO das luvas (sistema de itens do PoE): a mesma paleta escura das outras artes de slot. -->
  <rect width="34" height="34" fill="#22272b"/>
  <rect x="1" y="1" width="32" height="32" fill="none" stroke="#0f1418" stroke-width="2"/>
  <path d="M11 29 V18 L8.5 14.5 a1.6 1.6 0 0 1 2.6 -1.8 L13 15 V7.5 a1.5 1.5 0 0 1 3 0 V14 V6 a1.5 1.5 0 0 1 3 0 V14 V7 a1.5 1.5 0 0 1 3 0 V15 V9.5 a1.5 1.5 0 0 1 3 0 V21 L23 29 Z"
        fill="#3a4246" stroke="#656b6e" stroke-width="1" stroke-linejoin="round"/>
  <rect x="10.5" y="25" width="13" height="4" fill="#2b3135" stroke="#606669" stroke-width="1"/>
</svg>
